# Blender 4.0.2
# www.blender.org
mtllib avatar.mtl
o Cube
v 1.000000 1.000000 -1.000000
v 1.000000 -1.000000 -1.000000
v 1.000000 1.000000 1.000000
v 1.000000 -1.000000 1.000000
v -1.000000 1.000000 -1.000000
v -1.000000 -1.000000 -1.000000
v -1.000000 1.000000 1.000000
v -1.000000 -1.000000 1.000000
v -0.290356 -0.290356 2.979080
v -0.290356 0.290356 2.979080
v -1.000000 -1.000000 0.979080
v -1.000000 1.000000 0.979080
v 0.290356 -0.290356 2.979080
v 0.290356 0.290356 2.979080
v 1.000000 -1.000000 0.979080
v 1.000000 1.000000 0.979080
v 0.201896 0.247403 -3.045903
v 0.201896 -0.247403 -3.045903
v 1.000000 1.000000 -1.045903
v 1.000000 -1.000000 -1.045903
v -0.201896 0.247403 -3.045903
v -0.201896 -0.247403 -3.045903
v -1.000000 1.000000 -1.045903
v -1.000000 -1.000000 -1.045903
v 0.235231 2.732904 0.285416
v -0.235231 2.732904 0.285416
v 0.235231 2.732904 -0.285416
v -0.235231 2.732904 -0.285416
v -1.000000 -1.000000 0.000000
v 1.000000 -1.000000 0.000000
v -1.000000 -1.000000 0.000000
v -1.000000 -1.000000 1.000000
v 1.000000 -1.000000 1.000000
v 1.000000 -1.000000 0.000000
v -1.000000 -5.500000 1.400000
v -1.000000 -5.500000 2.400000
v 1.000000 -5.500000 2.400000
v 1.000000 -5.500000 1.400000
v 1.000000 -5.500000 -2.400000
v -1.000000 -5.500000 -2.400000
v 1.000000 -5.500000 -1.400000
v -1.000000 -5.500000 -1.400000
vn -0.9149 0.4038 -0.0000
vn -0.0000 -0.0000 1.0000
vn -1.0000 -0.0000 -0.0000
vn -0.0000 1.0000 -0.0000
vn 1.0000 -0.0000 -0.0000
vn -0.0000 -0.0000 -1.0000
vn 0.9424 -0.0000 0.3344
vn -0.0000 -0.9424 0.3344
vn -0.9424 -0.0000 0.3344
vn -0.0000 0.9424 0.3344
vn -0.0000 0.9359 -0.3522
vn -0.9288 -0.0000 -0.3706
vn -0.0000 -0.9359 -0.3522
vn 0.9288 -0.0000 -0.3706
vn 0.9149 0.4038 -0.0000
vn -0.0000 0.3812 -0.9245
vn -0.0000 0.3812 0.9245
vn -0.0000 -0.2971 -0.9549
vn -0.0000 -1.0000 -0.0000
vn -0.0000 0.2971 0.9549
vn -0.0000 0.2971 -0.9549
vn -0.0000 -0.2971 0.9549
vt 0.260981 -0.000000
vt 0.185242 0.158191
vt 0.337656 0.126807
vt 0.527240 0.796956
vt 0.370483 0.952220
vt 0.527240 0.952220
vt 0.218069 0.311089
vt 0.294276 0.295397
vt 0.527240 0.654716
vt 0.185242 0.158191
vt 0.000000 0.279705
vt 0.076207 0.295397
vt 0.527240 0.139185
vt 0.370483 0.295608
vt 0.527240 0.295608
vt 0.156757 0.842462
vt 0.313180 0.999219
vt 0.313180 0.842462
vt 0.997136 0.555123
vt 0.898747 0.392789
vt 0.840754 0.555123
vt 0.989048 0.164053
vt 0.887911 0.000000
vt 0.832291 0.164053
vt 0.893737 0.555123
vt 0.997136 0.717457
vt 0.939143 0.555123
vt 0.675534 0.344798
vt 0.720616 0.390313
vt 0.720616 0.344798
vt 0.156757 0.677078
vt 0.257893 0.842462
vt 0.313514 0.677078
vt 0.778200 0.891664
vt 0.683997 0.727025
vt 0.840754 0.727025
vt 0.840754 0.874214
vt 0.997177 0.717457
vt 0.997177 0.874214
vt 0.683622 0.757242
vt 0.583106 0.920414
vt 0.527240 0.757242
vt 0.062554 0.677078
vt 0.156757 0.843243
vt 0.000000 0.843243
vt 0.894118 0.327225
vt 0.988673 0.164053
vt 0.932807 0.327225
vt 0.752264 0.383210
vt 0.720616 0.383210
vt 0.313514 0.677078
vt 0.350388 0.720598
vt 0.350388 0.677078
vt 0.153003 0.008957
vt 0.032828 0.126808
vt 0.467299 -0.000000
vt 0.370483 0.139185
vt 0.467299 0.654716
vt 0.370483 0.796956
vt 0.109035 0.661386
vt 0.152414 0.311089
vt 0.832291 0.000000
vt 0.675534 0.000000
vt 0.077178 0.843243
vt 0.000000 1.000000
vt 0.077178 1.000000
vt 0.527240 0.757242
vt 0.683997 0.392789
vt 0.527240 0.392789
vt 0.601387 0.023579
vt 0.675534 0.369210
vt 0.675534 -0.000000
vt 0.527240 0.369210
vt 0.601387 0.023579
vt 0.527240 0.000000
vt 0.154357 0.843243
vt 0.154357 1.000000
vt 0.261449 0.661386
vt 0.370483 0.654716
vt 0.683997 0.727025
vt 0.840754 0.392789
vt 0.217480 0.008957
vt 0.370483 0.279705
vt 0.156757 0.999219
vt 0.944153 0.392789
vt 0.933427 0.000000
vt 0.840754 0.717457
vt 0.675534 0.390313
vt 0.212378 0.842462
vt 0.746551 0.891664
vt 0.840754 0.717457
vt 0.621795 0.920414
vt 0.094203 0.677078
vt 0.832291 0.164053
vt 0.752264 0.344798
vt 0.313514 0.720598
vt 0.109502 0.000000
vt 0.430425 -0.000000
vt 0.430425 0.654716
vt 0.185242 0.677078
vt 0.832291 0.344798
vt -0.000000 0.843243
vt 0.683997 0.757242
vt 0.601387 0.392789
vt 0.601387 0.392789
vt 0.185242 0.677078
vt 0.840754 0.727025
s 0
usemtl Material
f 26/1/1 5/2/1 7/3/1
f 3/4/2 8/5/2 4/6/2
f 7/3/3 6/7/3 29/8/3
f 29/9/4 32/9/4 8/9/4
f 1/10/5 4/11/5 30/12/5
f 5/13/6 2/14/6 6/15/6
f 12/16/6 15/17/6 11/18/6
f 16/19/7 13/20/7 15/21/7
f 15/22/8 9/23/8 11/24/8
f 10/25/9 11/26/9 9/27/9
f 14/28/2 9/29/2 13/30/2
f 12/31/10 14/32/10 16/33/10
f 17/34/11 23/35/11 19/36/11
f 19/37/2 24/38/2 20/39/2
f 23/40/12 22/41/12 24/42/12
f 22/43/13 20/44/13 24/45/13
f 17/46/14 20/47/14 18/48/14
f 21/30/6 18/49/6 22/50/6
f 28/51/4 25/52/4 27/53/4
f 27/54/15 3/55/15 1/10/15
f 28/56/16 1/57/16 5/13/16
f 25/58/17 7/59/17 3/4/17
f 41/60/5 2/61/5 30/12/5
f 38/28/18 31/62/18 34/63/18
f 4/9/4 34/9/4 30/9/4
f 8/9/4 33/9/4 4/9/4
f 30/9/4 31/9/4 29/9/4
f 38/64/19 36/65/19 35/66/19
f 36/67/20 33/68/20 32/69/20
f 33/70/5 38/71/5 34/72/5
f 35/73/3 32/74/3 31/75/3
f 39/76/19 42/66/19 40/77/19
f 6/7/3 42/78/3 29/8/3
f 39/79/21 6/15/21 2/14/21
f 42/80/22 30/81/22 29/68/22
f 26/1/1 28/82/1 5/2/1
f 3/4/2 7/59/2 8/5/2
f 29/8/3 8/83/3 7/3/3
f 7/3/3 5/2/3 6/7/3
f 29/9/4 31/9/4 32/9/4
f 30/12/5 2/61/5 1/10/5
f 1/10/5 3/55/5 4/11/5
f 5/13/6 1/57/6 2/14/6
f 12/16/6 16/84/6 15/17/6
f 16/19/7 14/85/7 13/20/7
f 15/22/8 13/86/8 9/23/8
f 10/25/9 12/87/9 11/26/9
f 14/28/2 10/88/2 9/29/2
f 12/31/10 10/89/10 14/32/10
f 17/34/11 21/90/11 23/35/11
f 19/37/2 23/91/2 24/38/2
f 23/40/12 21/92/12 22/41/12
f 22/43/13 18/93/13 20/44/13
f 17/46/14 19/94/14 20/47/14
f 21/30/6 17/95/6 18/49/6
f 28/51/4 26/96/4 25/52/4
f 27/54/15 25/97/15 3/55/15
f 28/56/16 27/98/16 1/57/16
f 25/58/17 26/99/17 7/59/17
f 41/60/5 39/100/5 2/61/5
f 38/28/18 35/101/18 31/62/18
f 4/9/4 33/9/4 34/9/4
f 8/9/4 32/9/4 33/9/4
f 30/9/4 34/9/4 31/9/4
f 38/64/19 37/102/19 36/65/19
f 36/67/20 37/103/20 33/68/20
f 33/70/5 37/104/5 38/71/5
f 35/73/3 36/105/3 32/74/3
f 39/76/19 41/64/19 42/66/19
f 6/7/3 40/106/3 42/78/3
f 39/79/21 40/9/21 6/15/21
f 42/80/22 41/107/22 30/81/22
