# Blender 4.0.2
# www.blender.org
mtllib cylinder.mtl
o Cylinder
v 0.000000 -1.000000 1.000000
v 0.000000 1.000000 1.000000
v -0.195090 -1.000000 0.980785
v -0.195090 1.000000 0.980785
v -0.382683 -1.000000 0.923880
v -0.382683 1.000000 0.923880
v -0.555570 -1.000000 0.831470
v -0.555570 1.000000 0.831470
v -0.707107 -1.000000 0.707107
v -0.707107 1.000000 0.707107
v -0.831470 -1.000000 0.555570
v -0.831470 1.000000 0.555570
v -0.923880 -1.000000 0.382683
v -0.923880 1.000000 0.382683
v -0.980785 -1.000000 0.195090
v -0.980785 1.000000 0.195090
v -1.000000 -1.000000 0.000000
v -1.000000 1.000000 0.000000
v -0.980785 -1.000000 -0.195090
v -0.980785 1.000000 -0.195090
v -0.923880 -1.000000 -0.382683
v -0.923880 1.000000 -0.382683
v -0.831470 -1.000000 -0.555570
v -0.831470 1.000000 -0.555570
v -0.707107 -1.000000 -0.707107
v -0.707107 1.000000 -0.707107
v -0.555570 -1.000000 -0.831470
v -0.555570 1.000000 -0.831470
v -0.382683 -1.000000 -0.923880
v -0.382683 1.000000 -0.923880
v -0.195090 -1.000000 -0.980785
v -0.195090 1.000000 -0.980785
v 0.000000 -1.000000 -1.000000
v 0.000000 1.000000 -1.000000
v 0.195090 -1.000000 -0.980785
v 0.195090 1.000000 -0.980785
v 0.382683 -1.000000 -0.923880
v 0.382683 1.000000 -0.923880
v 0.555570 -1.000000 -0.831470
v 0.555570 1.000000 -0.831470
v 0.707107 -1.000000 -0.707107
v 0.707107 1.000000 -0.707107
v 0.831470 -1.000000 -0.555570
v 0.831470 1.000000 -0.555570
v 0.923880 -1.000000 -0.382683
v 0.923880 1.000000 -0.382683
v 0.980785 -1.000000 -0.195090
v 0.980785 1.000000 -0.195090
v 1.000000 -1.000000 0.000000
v 1.000000 1.000000 0.000000
v 0.980785 -1.000000 0.195090
v 0.980785 1.000000 0.195090
v 0.923880 -1.000000 0.382683
v 0.923880 1.000000 0.382683
v 0.831470 -1.000000 0.555570
v 0.831470 1.000000 0.555570
v 0.707107 -1.000000 0.707107
v 0.707107 1.000000 0.707107
v 0.555570 -1.000000 0.831470
v 0.555570 1.000000 0.831470
v 0.382683 -1.000000 0.923880
v 0.382683 1.000000 0.923880
v 0.195090 -1.000000 0.980785
v 0.195090 1.000000 0.980785
vn -0.0980 -0.0000 0.9952
vn -0.2903 -0.0000 0.9569
vn -0.4714 -0.0000 0.8819
vn -0.6344 -0.0000 0.7730
vn -0.7730 -0.0000 0.6344
vn -0.8819 -0.0000 0.4714
vn -0.9569 -0.0000 0.2903
vn -0.9952 -0.0000 0.0980
vn -0.9952 -0.0000 -0.0980
vn -0.9569 -0.0000 -0.2903
vn -0.8819 -0.0000 -0.4714
vn -0.7730 -0.0000 -0.6344
vn -0.6344 -0.0000 -0.7730
vn -0.4714 -0.0000 -0.8819
vn -0.2903 -0.0000 -0.9569
vn -0.0980 -0.0000 -0.9952
vn 0.0980 -0.0000 -0.9952
vn 0.2903 -0.0000 -0.9569
vn 0.4714 -0.0000 -0.8819
vn 0.6344 -0.0000 -0.7730
vn 0.7730 -0.0000 -0.6344
vn 0.8819 -0.0000 -0.4714
vn 0.9569 -0.0000 -0.2903
vn 0.9952 -0.0000 -0.0980
vn 0.9952 -0.0000 0.0980
vn 0.9569 -0.0000 0.2903
vn 0.8819 -0.0000 0.4714
vn 0.7730 -0.0000 0.6344
vn 0.6344 -0.0000 0.7730
vn 0.4714 -0.0000 0.8819
vn -0.0000 1.0000 -0.0000
vn 0.2903 -0.0000 0.9569
vn 0.0980 -0.0000 0.9952
vn -0.0000 -1.0000 -0.0000
vt 0.402068 0.335942
vt 0.369155 0.000149
vt 0.402068 0.000149
vt 0.369155 0.335942
vt 0.336241 0.000149
vt 0.000149 0.724246
vt 0.335942 0.691332
vt 0.335942 0.724246
vt 0.000149 0.691332
vt 0.335942 0.658419
vt 0.000149 0.658419
vt 0.335942 0.625505
vt 0.000149 0.625505
vt 0.335942 0.592592
vt 0.000149 0.592592
vt 0.335942 0.559678
vt 0.000149 0.559678
vt 0.335942 0.526765
vt 0.000149 0.526765
vt 0.335942 0.493851
vt 0.000149 0.493851
vt 0.335942 0.460938
vt 0.000149 0.460938
vt 0.335942 0.428024
vt 0.000149 0.428024
vt 0.335942 0.395111
vt 0.000149 0.395111
vt 0.335942 0.362198
vt 0.000149 0.362197
vt 0.335942 0.329284
vt 0.000149 0.329284
vt 0.335942 0.296371
vt 0.000149 0.296371
vt 0.335942 0.263457
vt 0.000149 0.263457
vt 0.335942 0.230544
vt 0.000149 0.230544
vt 0.335942 0.197630
vt 0.000149 0.197630
vt 0.335942 0.164717
vt 0.000149 0.164717
vt 0.335942 0.131803
vt 0.000149 0.131803
vt 0.335942 0.098890
vt 0.000149 0.098890
vt 0.335942 0.065976
vt 0.000149 0.065976
vt 0.335942 0.033063
vt 0.000149 0.033063
vt 0.335942 0.000149
vt 0.665376 0.335942
vt 0.632462 0.000149
vt 0.665376 0.000149
vt 0.632462 0.335942
vt 0.599549 0.000149
vt 0.599549 0.335942
vt 0.566635 0.000149
vt 0.566635 0.335942
vt 0.533722 0.000149
vt 0.533722 0.335942
vt 0.500809 0.000149
vt 0.500809 0.335942
vt 0.467895 0.000149
vt 0.911909 0.019166
vt 0.980834 0.246383
vt 0.753617 0.315309
vt 0.467895 0.335942
vt 0.434982 0.000149
vt 0.434982 0.335942
vt 0.663996 0.454591
vt 0.552067 0.663996
vt 0.342662 0.552067
vt 0.336241 0.335942
vt 0.000150 0.000149
vt 0.726250 0.297023
vt 0.702977 0.273750
vt 0.684691 0.246383
vt 0.672096 0.215975
vt 0.665675 0.183694
vt 0.665675 0.150781
vt 0.672096 0.118500
vt 0.684691 0.088092
vt 0.702977 0.060725
vt 0.726250 0.037452
vt 0.753617 0.019166
vt 0.784025 0.006571
vt 0.816306 0.000149
vt 0.849220 0.000149
vt 0.881500 0.006571
vt 0.939275 0.037452
vt 0.962548 0.060725
vt 0.980834 0.088092
vt 0.993430 0.118500
vt 0.999851 0.150781
vt 0.999851 0.183694
vt 0.993430 0.215975
vt 0.962548 0.273750
vt 0.939275 0.297023
vt 0.911909 0.315309
vt 0.881500 0.327904
vt 0.849219 0.334325
vt 0.816306 0.334325
vt 0.784025 0.327904
vt 0.336241 0.519786
vt 0.336241 0.486872
vt 0.342662 0.454591
vt 0.355258 0.424183
vt 0.373543 0.396817
vt 0.396817 0.373543
vt 0.424183 0.355258
vt 0.454591 0.342662
vt 0.486872 0.336241
vt 0.519786 0.336241
vt 0.552067 0.342662
vt 0.582475 0.355258
vt 0.609842 0.373543
vt 0.633115 0.396817
vt 0.651401 0.424183
vt 0.670417 0.486872
vt 0.670417 0.519786
vt 0.663996 0.552067
vt 0.651401 0.582475
vt 0.633115 0.609841
vt 0.609842 0.633115
vt 0.582475 0.651401
vt 0.519786 0.670417
vt 0.486872 0.670417
vt 0.454591 0.663996
vt 0.424183 0.651401
vt 0.396817 0.633115
vt 0.373543 0.609841
vt 0.355258 0.582475
s 0
f 2/1/1 3/2/1 1/3/1
f 4/4/2 5/5/2 3/2/2
f 6/6/3 7/7/3 5/8/3
f 8/9/4 9/10/4 7/7/4
f 10/11/5 11/12/5 9/10/5
f 12/13/6 13/14/6 11/12/6
f 14/15/7 15/16/7 13/14/7
f 16/17/8 17/18/8 15/16/8
f 18/19/9 19/20/9 17/18/9
f 20/21/10 21/22/10 19/20/10
f 22/23/11 23/24/11 21/22/11
f 24/25/12 25/26/12 23/24/12
f 26/27/13 27/28/13 25/26/13
f 28/29/14 29/30/14 27/28/14
f 30/31/15 31/32/15 29/30/15
f 32/33/16 33/34/16 31/32/16
f 34/35/17 35/36/17 33/34/17
f 36/37/18 37/38/18 35/36/18
f 38/39/19 39/40/19 37/38/19
f 40/41/20 41/42/20 39/40/20
f 42/43/21 43/44/21 41/42/21
f 44/45/22 45/46/22 43/44/22
f 46/47/23 47/48/23 45/46/23
f 48/49/24 49/50/24 47/48/24
f 50/51/25 51/52/25 49/53/25
f 52/54/26 53/55/26 51/52/26
f 54/56/27 55/57/27 53/55/27
f 56/58/28 57/59/28 55/57/28
f 58/60/29 59/61/29 57/59/29
f 60/62/30 61/63/30 59/61/30
f 38/64/31 22/65/31 6/66/31
f 62/67/32 63/68/32 61/63/32
f 64/69/33 1/3/33 63/68/33
f 31/70/34 47/71/34 63/72/34
f 2/1/1 4/4/1 3/2/1
f 4/4/2 6/73/2 5/5/2
f 6/6/3 8/9/3 7/7/3
f 8/9/4 10/11/4 9/10/4
f 10/11/5 12/13/5 11/12/5
f 12/13/6 14/15/6 13/14/6
f 14/15/7 16/17/7 15/16/7
f 16/17/8 18/19/8 17/18/8
f 18/19/9 20/21/9 19/20/9
f 20/21/10 22/23/10 21/22/10
f 22/23/11 24/25/11 23/24/11
f 24/25/12 26/27/12 25/26/12
f 26/27/13 28/29/13 27/28/13
f 28/29/14 30/31/14 29/30/14
f 30/31/15 32/33/15 31/32/15
f 32/33/16 34/35/16 33/34/16
f 34/35/17 36/37/17 35/36/17
f 36/37/18 38/39/18 37/38/18
f 38/39/19 40/41/19 39/40/19
f 40/41/20 42/43/20 41/42/20
f 42/43/21 44/45/21 43/44/21
f 44/45/22 46/47/22 45/46/22
f 46/47/23 48/49/23 47/48/23
f 48/49/24 50/74/24 49/50/24
f 50/51/25 52/54/25 51/52/25
f 52/54/26 54/56/26 53/55/26
f 54/56/27 56/58/27 55/57/27
f 56/58/28 58/60/28 57/59/28
f 58/60/29 60/62/29 59/61/29
f 60/62/30 62/67/30 61/63/30
f 6/66/31 4/75/31 2/76/31
f 2/76/31 64/77/31 62/78/31
f 62/78/31 60/79/31 58/80/31
f 58/80/31 56/81/31 54/82/31
f 54/82/31 52/83/31 50/84/31
f 50/84/31 48/85/31 46/86/31
f 46/86/31 44/87/31 42/88/31
f 42/88/31 40/89/31 38/64/31
f 38/64/31 36/90/31 34/91/31
f 34/91/31 32/92/31 30/93/31
f 30/93/31 28/94/31 26/95/31
f 26/95/31 24/96/31 22/65/31
f 22/65/31 20/97/31 18/98/31
f 18/98/31 16/99/31 14/100/31
f 14/100/31 12/101/31 10/102/31
f 10/102/31 8/103/31 6/66/31
f 6/66/31 2/76/31 62/78/31
f 62/78/31 58/80/31 54/82/31
f 54/82/31 50/84/31 46/86/31
f 46/86/31 42/88/31 38/64/31
f 38/64/31 34/91/31 30/93/31
f 30/93/31 26/95/31 22/65/31
f 22/65/31 18/98/31 14/100/31
f 14/100/31 10/102/31 6/66/31
f 6/66/31 62/78/31 54/82/31
f 54/82/31 46/86/31 38/64/31
f 38/64/31 30/93/31 22/65/31
f 22/65/31 14/100/31 6/66/31
f 6/66/31 54/82/31 38/64/31
f 62/67/32 64/69/32 63/68/32
f 64/69/33 2/1/33 1/3/33
f 63/72/34 1/104/34 3/105/34
f 3/105/34 5/106/34 7/107/34
f 7/107/34 9/108/34 11/109/34
f 11/109/34 13/110/34 15/111/34
f 15/111/34 17/112/34 19/113/34
f 19/113/34 21/114/34 23/115/34
f 23/115/34 25/116/34 27/117/34
f 27/117/34 29/118/34 31/70/34
f 31/70/34 33/119/34 35/120/34
f 35/120/34 37/121/34 39/122/34
f 39/122/34 41/123/34 43/124/34
f 43/124/34 45/125/34 47/71/34
f 47/71/34 49/126/34 51/127/34
f 51/127/34 53/128/34 55/129/34
f 55/129/34 57/130/34 59/131/34
f 59/131/34 61/132/34 63/72/34
f 63/72/34 3/105/34 7/107/34
f 7/107/34 11/109/34 15/111/34
f 15/111/34 19/113/34 23/115/34
f 23/115/34 27/117/34 31/70/34
f 31/70/34 35/120/34 39/122/34
f 39/122/34 43/124/34 47/71/34
f 47/71/34 51/127/34 55/129/34
f 55/129/34 59/131/34 63/72/34
f 63/72/34 7/107/34 15/111/34
f 15/111/34 23/115/34 31/70/34
f 31/70/34 39/122/34 47/71/34
f 47/71/34 55/129/34 63/72/34
f 63/72/34 15/111/34 31/70/34
